<?xml version="1.0" encoding="UTF-8" standalone="no"?><!DOCTYPE svg PUBLIC "-//W3C//DTD SVG 1.1//EN" "http://www.w3.org/Graphics/SVG/1.1/DTD/svg11.dtd"><svg width="100%" height="100%" viewBox="0 0 1452 1064" version="1.1" xmlns="http://www.w3.org/2000/svg" xmlns:xlink="http://www.w3.org/1999/xlink" xml:space="preserve" xmlns:serif="http://www.serif.com/" style="fill-rule:evenodd;clip-rule:evenodd;stroke-linejoin:round;stroke-miterlimit:2;"><path d="M742.383,897.983c3.983,0 7.272,-0.313 9.867,-0.938c2.594,-0.626 4.676,-1.479 6.245,-2.56c1.569,-1.081 2.655,-2.361 3.259,-3.84c0.603,-1.479 0.905,-3.128 0.905,-4.949c-0,-3.868 -1.931,-7.082 -5.793,-9.641c-3.862,-2.56 -10.5,-5.319 -19.914,-8.277c-4.103,-1.365 -8.206,-2.929 -12.31,-4.693c-4.103,-1.763 -7.784,-3.981 -11.043,-6.655c-3.258,-2.673 -5.913,-5.916 -7.965,-9.727c-2.052,-3.811 -3.078,-8.447 -3.078,-13.908c0,-5.461 1.087,-10.381 3.259,-14.761c2.172,-4.38 5.25,-8.106 9.233,-11.177c3.982,-3.072 8.81,-5.433 14.482,-7.082c5.672,-1.65 12.069,-2.475 19.189,-2.475c8.449,0 15.75,0.853 21.905,2.56c6.155,1.706 11.224,3.584 15.207,5.631l-8.146,20.99c-3.5,-1.706 -7.393,-3.214 -11.677,-4.522c-4.284,-1.308 -9.444,-1.962 -15.478,-1.962c-6.759,-0 -11.616,0.881 -14.573,2.645c-2.957,1.763 -4.436,4.465 -4.436,8.105c0,2.162 0.544,3.982 1.63,5.461c1.086,1.479 2.625,2.816 4.616,4.01c1.991,1.195 4.284,2.276 6.879,3.243c2.595,0.967 5.461,1.962 8.599,2.986c6.517,2.275 12.19,4.522 17.017,6.741c4.828,2.218 8.841,4.806 12.039,7.764c3.198,2.958 5.582,6.428 7.151,10.41c1.569,3.982 2.353,8.817 2.353,14.505c-0,11.035 -4.103,19.596 -12.31,25.683c-8.207,6.086 -20.577,9.129 -37.112,9.129c-5.551,0 -10.56,-0.312 -15.025,-0.938c-4.466,-0.626 -8.418,-1.394 -11.858,-2.304c-3.439,-0.91 -6.396,-1.877 -8.87,-2.901c-2.474,-1.024 -4.556,-1.991 -6.246,-2.901l7.965,-21.16c3.742,1.934 8.358,3.669 13.849,5.204c5.492,1.536 12.22,2.304 20.185,2.304Zm-57.749,-38.908c0,10.125 -1.599,19.028 -4.797,26.707c-3.198,7.679 -7.573,14.107 -13.125,19.283c-5.551,5.176 -12.159,9.073 -19.823,11.689c-7.663,2.617 -15.9,3.925 -24.711,3.925c-8.568,0 -16.655,-1.308 -24.258,-3.925c-7.603,-2.616 -14.241,-6.513 -19.913,-11.689c-5.673,-5.176 -10.138,-11.604 -13.397,-19.283c-3.258,-7.679 -4.888,-16.582 -4.888,-26.707c0,-10.125 1.69,-19.027 5.069,-26.706c3.38,-7.68 7.936,-14.136 13.668,-19.369c5.733,-5.233 12.371,-9.158 19.914,-11.775c7.543,-2.616 15.478,-3.925 23.805,-3.925c8.569,0 16.655,1.309 24.259,3.925c7.603,2.617 14.241,6.542 19.913,11.775c5.672,5.233 10.138,11.689 13.396,19.369c3.259,7.679 4.888,16.581 4.888,26.706Zm273.177,-60.41c18.827,0 33.249,3.157 43.267,9.471c10.017,6.314 15.025,16.127 15.025,29.437c0,8.305 -2.021,15.046 -6.064,20.222c-4.043,5.177 -9.867,9.244 -17.47,12.202c2.535,2.958 5.19,6.342 7.965,10.153c2.776,3.811 5.522,7.793 8.237,11.946c2.716,4.152 5.341,8.475 7.875,12.969c2.535,4.494 4.888,8.902 7.061,13.225l-31.681,0c-2.293,-3.868 -4.616,-7.793 -6.97,-11.774c-2.353,-3.982 -4.767,-7.85 -7.241,-11.605c-2.474,-3.754 -4.918,-7.309 -7.332,-10.665c-2.414,-3.356 -4.827,-6.399 -7.241,-9.13l-13.939,0l-0,43.174l-28.241,0l-0,-116.553c6.155,-1.138 12.521,-1.934 19.098,-2.389c6.578,-0.455 12.461,-0.683 17.651,-0.683Zm-54.853,1.366l0,22.696l-37.835,-0l-0,95.563l-28.241,0l-0,-95.563l-37.836,-0l0,-22.696l103.912,-0Zm-390.485,118.259c-8.086,-13.538 -16.836,-26.905 -26.249,-40.102c-9.414,-13.197 -19.431,-25.654 -30.052,-37.372l0,77.474l-27.879,0l0,-118.259l22.992,-0c3.982,3.754 8.387,8.361 13.215,13.822c4.827,5.461 9.745,11.291 14.754,17.492c5.008,6.2 9.987,12.628 14.935,19.283c4.948,6.655 9.595,13.055 13.939,19.198l0,-69.795l28.06,-0l0,118.259l-23.715,0Zm76.396,-59.215c-0,5.802 0.754,11.035 2.262,15.7c1.509,4.664 3.681,8.675 6.518,12.031c2.836,3.356 6.306,5.944 10.409,7.764c4.103,1.82 8.81,2.731 14.12,2.731c5.19,-0 9.867,-0.911 14.03,-2.731c4.164,-1.82 7.664,-4.408 10.5,-7.764c2.836,-3.356 5.009,-7.367 6.517,-12.031c1.509,-4.665 2.263,-9.898 2.263,-15.7c0,-5.802 -0.754,-11.064 -2.263,-15.785c-1.508,-4.721 -3.681,-8.76 -6.517,-12.116c-2.836,-3.356 -6.336,-5.944 -10.5,-7.764c-4.163,-1.821 -8.84,-2.731 -14.03,-2.731c-5.31,0 -10.017,0.939 -14.12,2.816c-4.103,1.877 -7.573,4.494 -10.409,7.85c-2.837,3.356 -5.009,7.394 -6.518,12.116c-1.508,4.721 -2.262,9.926 -2.262,15.614Zm370.571,-37.713c-2.051,-0 -3.892,0.057 -5.521,0.17c-1.629,0.114 -3.168,0.228 -4.616,0.342l-0,32.082l7.965,-0c10.62,-0 18.224,-1.252 22.81,-3.755c4.586,-2.502 6.879,-6.769 6.879,-12.798c0,-5.802 -2.323,-9.926 -6.97,-12.372c-4.646,-2.446 -11.495,-3.669 -20.547,-3.669Zm-414.201,-488.236c-9.24,-1.36 -16.703,-6.905 -26,-8.536c-16.483,-2.893 -36.064,3.264 -50,11.74c-16.629,10.116 -29.779,25.643 -36.792,43.796c-1.573,4.073 -7.271,15.768 -1.89,18.928c4.868,2.859 22.842,-8.271 28.682,-9.928c2.762,9.627 -5.769,20.929 -5.946,31c-0.083,4.724 1.423,10.282 6.95,10.808c7.852,0.746 15.995,-12.536 21.826,-16.982c2.129,-1.622 6.561,-6.551 9.527,-4.034c2.268,1.926 0.355,6.017 -0.407,8.208c-1.664,4.784 -7.323,23.942 1.183,25.381c7.289,1.234 17.624,-9.124 23.867,-12.261c13.849,-6.96 33.597,-12.428 49,-13.726c9.135,-0.771 16.686,6.91 24,11.181c13.456,7.857 28.146,13.576 43,18.206c10.537,3.284 21.323,5.677 32,8.484c2.924,0.769 9.441,0.856 10.887,4.049c2.071,4.576 -7.163,13.719 -9.916,16.686c-13.477,14.524 -28.404,28.95 -44.971,39.96c-7.991,5.31 -17.579,6.926 -24.471,14.044c-8.346,8.62 -7.311,20.496 -13.724,29.996c-21.372,31.658 -42.898,64.26 -66.339,94.41c-11.47,14.752 -32.751,10.244 -43.767,26.59c-2.033,3.016 -6.415,12.548 -0.471,14.187c3.181,0.876 7.305,-1.493 10.772,-1.187c-6.98,14.758 -16.026,25.931 -16,43c0.007,4.25 -0.051,14.258 5.989,14.963c4.672,0.546 11.907,-18.892 14.435,-22.677c7.853,-11.757 19.303,-20.488 28.29,-31.287c8.359,-10.044 14.702,-22.137 21.967,-32.999c15.016,-22.448 31.917,-43.714 48.504,-64.999c7.608,-9.763 14.521,-21.098 23.43,-29.723c5.994,-5.803 15.189,-6.94 21.211,-13.321c5.783,-6.126 5.959,-14.951 11.402,-20.773c6.601,-7.061 16.127,-12.286 23.772,-18.195c21.579,-16.678 41.937,-31.728 69,-37.989c-3.362,19.525 -35.638,52.143 -14.192,71.211c12.708,11.298 25.351,-4.486 37.192,-8.044c24.723,-7.43 49.166,-15.911 74,-22.913c10.004,-2.821 20.45,-8.17 31,-8.235c14.471,-0.088 6.552,18.15 17.089,23.801c11.33,6.077 4.006,-11.08 8.5,-13.899c2.88,-1.806 6.865,4.438 8.45,6.075c3.885,4.011 21.957,22.565 28.432,15.347c4.021,-4.484 -4.243,-13.792 -6.625,-17.513c-8.463,-13.222 -18.487,-38.464 -34.846,-43.192c-13.82,-3.994 -30.032,3.037 -43,7.168c-30.202,9.62 -62.914,16.68 -92,29.194c1.94,-17.865 19.247,-24.408 30.956,-34.379c4.815,-4.1 6.31,-11.568 12.083,-14.593c8.529,-4.469 26.202,-1.253 35.961,-2.198c30.772,-2.978 63.078,-9.582 85.271,-33c12.592,-13.287 17.414,-29.933 18.64,-47.83c0.564,-8.244 -3.329,-20.941 1.653,-27.96c9.011,-12.696 30.785,-19.7 43.012,-29.545c34.754,-27.984 57.384,-74.21 43.984,-118.495c-6.32,-20.896 -21.86,-35.205 -38.56,-48.185c-9.188,-7.14 -24.357,-15.206 -26.606,-27.815c-1.683,-9.44 7.486,-11.541 14.606,-13.573c16.51,-4.712 36.87,-3.285 54,-3.427l-18,-11l18,-1l-0,-3c-13,-3.08 -27.96,-7.375 -40,-13.238c-17.419,-8.483 -40.163,-30.94 -57.366,-7.747c-2.415,3.256 -4.312,7.15 -5.594,10.985c-10.437,31.216 1.733,59.279 24.96,80.911c10.509,9.787 23.238,17.13 33.195,27.528c16.745,17.489 19.825,49.461 3.592,68.561c-16.438,19.337 -35.799,19.393 -58.787,17.17c-8.961,-0.867 -18.681,4.793 -27.17,2.381c-13.511,-3.839 -25.531,-15.056 -37.83,-21.664c-15.691,-8.431 -33.324,-13.028 -51,-14.717c-67.552,-6.455 -119.746,25.394 -179,51.66c-19.997,8.865 -41.473,10.17 -63,10.17c-5.484,-0 -21.528,-2.704 -24.968,2.434c-3.342,4.99 3.463,11.113 4.968,15.566Z" style="fill:#020202;"/></svg>